<svg width="48" height="48" viewBox="0 0 48 48" fill="none" xmlns="http://www.w3.org/2000/svg">
<circle cx="32.4" cy="27" r="14.4" fill="#FFEB3B"/>
<path fill-rule="evenodd" clip-rule="evenodd" d="M14.7031 22.001C14.7204 22.0461 14.7412 22.0947 14.7654 22.1465C14.7205 22.0876 14.6989 22.0387 14.7031 22.001ZM39.2577 19.6011C38.4858 19.0945 36.8941 18.1932 36.7021 18.6412C37.102 21.1211 35.9021 24.9609 34.9421 26.8008C33.9822 28.6407 35.7421 36.4003 37.262 36.0004C38.478 35.6804 39.9019 32.8272 40.4619 31.4406C40.6361 31.1967 41.0539 30.5748 41.6618 29.6018C41.9843 29.0856 42.3603 28.4706 42.7818 27.7607C43.5497 25.6489 42.0885 23.7343 41.2618 23.041C40.9952 22.961 40.4619 22.625 40.4619 21.921C40.1924 21.0491 39.7783 20.2776 39.2577 19.6011Z" fill="#1E1E1E"/>
<path fill-rule="evenodd" clip-rule="evenodd" d="M40.4619 31.4406C39.9019 32.8272 38.478 35.6804 37.262 36.0004C35.7421 36.4003 33.9822 28.6407 34.9421 26.8008C35.9021 24.9609 37.102 21.1211 36.7021 18.6412C36.8941 18.1932 38.4858 19.0945 39.2577 19.6011C37.1515 16.8642 33.3012 15.6813 30.2224 15.6813C29.9824 16.2413 28.9424 17.3453 26.7025 17.2813C25.4226 18.3692 23.556 18.4279 22.7827 18.3212C22.3294 18.4545 21.5668 19.0572 22.1428 20.4011C22.1428 20.563 22.3339 20.7522 22.6363 21.0516C23.2305 21.6398 24.2544 22.6534 25.1026 24.7209C24.9106 26.8968 25.1826 28.614 25.3426 29.2007C25.4493 29.6807 25.7586 30.6886 26.1426 30.8806C26.0892 34.6671 25.6306 42.432 24.2227 43.2H40.8619C40.6219 40.7735 40.3819 35.6324 41.3418 34.4804C41.8538 32.5605 41.7685 30.4281 41.6618 29.6018C41.0539 30.5748 40.6361 31.1967 40.4619 31.4406ZM28.3025 18.6412C28.2385 18.3212 28.7024 18.1345 28.9424 18.0812C30.1424 18.4012 30.0624 20.0011 29.8224 19.9211C29.5824 19.8411 28.3825 19.0412 28.3025 18.6412Z" fill="#1E1E1E"/>
<path d="M28.9424 18.0812C28.7024 18.1345 28.2385 18.3212 28.3025 18.6412C28.3825 19.0412 29.5824 19.8411 29.8224 19.9211C30.0624 20.0011 30.1424 18.4012 28.9424 18.0812Z" fill="white"/>
<path d="M30.2224 15.6813C25.6146 17.7932 19.8229 16.8279 17.503 16.0813C18.303 16.8013 17.343 18.5612 16.463 18.3212C15.7808 18.1351 15.2427 18.7185 14.9236 19.0646C14.8311 19.1649 14.757 19.2452 14.7031 19.2812C14.4631 19.4412 14.4631 21.2011 14.7031 22.001C14.7204 22.0461 14.7412 22.0947 14.7654 22.1465C15.4063 22.9867 20.7917 25.8603 23.5827 27.2808C23.7698 27.8422 22.8574 27.8412 22.4902 27.8408L22.4627 27.8407C23.2094 28.7207 25.2466 30.6886 26.1426 30.8806C25.7586 30.6886 25.4493 29.6807 25.3426 29.2007C25.1826 28.614 24.9106 26.8968 25.1026 24.7209C24.2544 22.6534 23.2305 21.6398 22.6363 21.0516C22.3339 20.7522 22.1428 20.563 22.1428 20.4011C21.5668 19.0572 22.3294 18.4545 22.7827 18.3212C23.556 18.4279 25.4226 18.3692 26.7025 17.2813C28.9424 17.3453 29.9824 16.2413 30.2224 15.6813Z" fill="#1E1E1E"/>
<path d="M16.463 18.3212C17.343 18.5612 18.303 16.8013 17.503 16.0813C17.263 15.8147 16.527 15.3453 15.5031 15.6013C14.5431 16.5613 14.5431 18.9612 14.7031 19.2812C14.757 19.2452 14.8311 19.1649 14.9236 19.0646C15.2427 18.7185 15.7808 18.1351 16.463 18.3212Z" fill="#1E1E1E"/>
<path d="M18.223 24.8809C20.5428 26.1608 21.5828 26.906 22.4627 27.8407L22.4902 27.8408C22.8574 27.8412 23.7698 27.8422 23.5827 27.2808C20.7917 25.8603 15.4063 22.9867 14.7654 22.1465C15.1144 22.8914 16.1884 24.2825 18.223 24.8809Z" fill="#1E1E1E"/>
<path d="M17.503 16.0813C19.8229 16.8279 25.6146 17.7932 30.2224 15.6813M17.503 16.0813C18.303 16.8013 17.343 18.5612 16.463 18.3212C15.7808 18.1351 15.2427 18.7185 14.9236 19.0646C14.8311 19.1649 14.757 19.2452 14.7031 19.2812M17.503 16.0813C17.263 15.8147 16.527 15.3453 15.5031 15.6013C14.5431 16.5613 14.5431 18.9612 14.7031 19.2812M30.2224 15.6813C33.3012 15.6813 37.1515 16.8642 39.2577 19.6011M30.2224 15.6813C29.9824 16.2413 28.9424 17.3453 26.7025 17.2813C25.4226 18.3692 23.556 18.4279 22.7827 18.3212C22.3294 18.4545 21.5668 19.0572 22.1428 20.4011C22.1428 20.563 22.3339 20.7522 22.6363 21.0516C23.2305 21.6398 24.2544 22.6534 25.1026 24.7209C24.9106 26.8968 25.1826 28.614 25.3426 29.2007C25.4493 29.6807 25.7586 30.6886 26.1426 30.8806M39.2577 19.6011C39.7783 20.2776 40.1924 21.0491 40.4619 21.921C40.4619 22.625 40.9952 22.961 41.2618 23.041C42.0885 23.7343 43.5497 25.6489 42.7818 27.7607C42.3603 28.4706 41.9843 29.0856 41.6618 29.6018M39.2577 19.6011C38.4858 19.0945 36.8941 18.1932 36.7021 18.6412C37.102 21.1211 35.9021 24.9609 34.9421 26.8008C33.9822 28.6407 35.7421 36.4003 37.262 36.0004C38.478 35.6804 39.9019 32.8272 40.4619 31.4406C40.6361 31.1967 41.0539 30.5748 41.6618 29.6018M26.1426 30.8806C25.2466 30.6886 23.2094 28.7207 22.4627 27.8407M26.1426 30.8806C26.0892 34.6671 25.6306 42.432 24.2227 43.2M22.4627 27.8407C21.5828 26.906 20.5428 26.1608 18.223 24.8809C16.1884 24.2825 15.1144 22.8914 14.7654 22.1465M22.4627 27.8407C22.4715 27.8407 22.4807 27.8408 22.4902 27.8408M22.4627 27.8407L22.4902 27.8408M14.7031 22.001C14.4631 21.2011 14.4631 19.4412 14.7031 19.2812M14.7031 22.001C14.6989 22.0387 14.7205 22.0876 14.7654 22.1465M14.7031 22.001C14.7204 22.0461 14.7412 22.0947 14.7654 22.1465M24.2227 43.2C26.7185 43.2 36.3554 43.2 40.8619 43.2M24.2227 43.2H40.8619M40.8619 43.2C40.6219 40.7735 40.3819 35.6324 41.3418 34.4804C41.8538 32.5605 41.7685 30.4281 41.6618 29.6018M14.7654 22.1465C15.4063 22.9867 20.7917 25.8603 23.5827 27.2808C23.7698 27.8422 22.8574 27.8412 22.4902 27.8408M28.9424 18.0812C28.7024 18.1345 28.2385 18.3212 28.3025 18.6412C28.3825 19.0412 29.5824 19.8411 29.8224 19.9211C30.0624 20.0011 30.1424 18.4012 28.9424 18.0812Z" stroke="#CACACA" stroke-width="0.159992"/>
<path d="M7.50952 7.66437V12.9998H17.7447C18.286 12.9998 18.7247 12.561 18.7247 12.0198C18.7247 11.4786 18.286 11.0398 17.7447 11.0398H13.6071C13.4267 11.0398 13.2804 10.8936 13.2804 10.7132C13.2804 10.5328 13.4267 10.3865 13.6071 10.3865H22.5357L25.1629 12.3131C25.5267 12.5799 26.0331 12.5301 26.338 12.1975C26.6922 11.8111 26.6347 11.2033 26.2143 10.8903L21.8824 7.66437H7.50952Z" fill="#1E1E1E"/>
<path d="M6.74732 4.94224H5.11404C4.99377 4.94224 4.89627 5.03974 4.89627 5.16001V14.3064C4.89627 14.4267 4.99377 14.5242 5.11404 14.5242H6.74732C6.86759 14.5242 6.96509 14.4267 6.96509 14.3064V5.16001C6.96509 5.03974 6.86759 4.94224 6.74732 4.94224Z" fill="#1E1E1E"/>
</svg>
